<?xml version="1.0" encoding="UTF-8"?>
<svg width="4104.4" height="1828" version="1.1" xmlns="http://www.w3.org/2000/svg" xmlns:cc="http://creativecommons.org/ns#" xmlns:dc="http://purl.org/dc/elements/1.1/" xmlns:rdf="http://www.w3.org/1999/02/22-rdf-syntax-ns#">
 <metadata>
  <rdf:RDF>
   <cc:Work rdf:about="">
    <dc:format>image/svg+xml</dc:format>
    <dc:type rdf:resource="http://purl.org/dc/dcmitype/StillImage"/>
   </cc:Work>
  </rdf:RDF>
 </metadata>
 <defs>
  <linearGradient id="color-1-0" x1="5.2618" x2="5.3041" y1="19.578" y2="43.222" gradientTransform="matrix(4.5478 0 0 4.5478 34.357 -7.319)" gradientUnits="userSpaceOnUse">
   <stop stop-opacity=".28" offset="0"/>
   <stop stop-opacity="0" offset="1"/>
  </linearGradient>
 </defs>
 <g transform="matrix(10.909 0 0 10.909 -23.339 -685.31)" font-family="none" stroke-miterlimit="10" text-anchor="none" style="mix-blend-mode:normal">
  <g transform="translate(.36667)" font-size="14" font-weight="400"></g>
  <g transform="matrix(.17804 0 0 .19394 6.8845 29.376)" fill="none" font-family="none" font-size="none" font-weight="none" stroke-miterlimit="10" stroke-width="none" text-anchor="none" style="mix-blend-mode:normal">
   <g transform="matrix(7.3216 0 0 6.7214 -23.979 -188.09)" fill="none" font-family="none" font-size="none" font-weight="none" stroke-miterlimit="10" stroke-width="none" text-anchor="none" style="mix-blend-mode:normal">
    <rect x="-.36504" y="53.64" width="288.63" height="128.55" fill="#607d8b" stroke-width=".81803"/>
    <path d="m71.005 120.86v-22.343l-12.556-12.556v-4.2481h30.274l10.056 10.056h0.43014l7.9047 7.9048v-1.0468l-12.501-12.501c-0.01904-0.01904-0.03643-0.03726-0.05465-0.0563-0.48396-0.53778-0.72598-1.2099-0.72598-2.0165 0-0.80655 0.24202-1.4877 0.72598-2.0434 0.50185-0.55567 1.2368-0.83352 2.2047-0.83352 0.91688 0 1.6247 0.24931 2.1235 0.74801l9.8454 9.8454 3.0878-4.1e-5 1.7073 1.7073c1.9089-1.4967 4.2615-2.2451 7.0578-2.2451 2.8954 0 5.1327 0.78966 6.712 2.3689l1.8962 1.8962c0.92256-1.2091 2.0772-2.2006 3.4638-2.9747 1.5594-0.86039 3.3966-1.2905 5.5118-1.2905 3.1247 0 5.4972 0.81019 7.1176 2.4306l10.117 10.117v-12.01l4.7052-9.1e-5 1.7073 1.7073c1.9089-1.4967 4.2615-2.2451 7.0578-2.2451 2.8954 0 5.1327 0.78966 6.712 2.3689l1.8962 1.8962c0.92251-1.2091 2.0771-2.2006 3.4638-2.9746 1.5594-0.8604 3.3966-1.2905 5.5118-1.2905 3.1247 0 5.4973 0.81019 7.1176 2.4306l9.0942 9.0943c0.26694-1.5695 0.73327-3.0361 1.399-4.3998 1.1293-2.2764 2.6887-4.033 4.6783-5.2698l3.1603 3.1603c1.0813-0.61917 2.3132-0.92874 3.6956-0.92874 2.1037 0 3.8548 0.69916 5.253 2.0974l8.0143 8.0144c-0.14631-4.1553-1.3691-7.517-3.6686-10.085l63.067 86.906-174.92 0.59037z" fill="url(#color-1-0)" stroke-width="4.5478"/>
    <path d="m88.71 85.906h-12.583v34.899h-5.1354v-34.899h-12.556v-4.2481h30.274zm10.486 34.899h-4.974v-29.091h4.974zm-5.3773-36.808c0-0.80663 0.24202-1.4877 0.72598-2.0434 0.50193-0.55567 1.2368-0.83348 2.2047-0.83348 0.96791 0 1.7028 0.27779 2.2047 0.83348 0.50193 0.55567 0.75281 1.2368 0.75281 2.0434 0 0.80663-0.25096 1.4788-0.75281 2.0165-0.50193 0.5377-1.2368 0.80663-2.2047 0.80663-0.9679 0-1.7028-0.26885-2.2047-0.80663-0.48396-0.5377-0.72598-1.2099-0.72598-2.0165zm17.987 7.7165 0.13447 3.2264c2.133-2.5094 5.0099-3.7642 8.6306-3.7642 4.0689 0 6.8382 1.5594 8.308 4.6783 0.9679-1.3981 2.2226-2.5273 3.7642-3.3877 1.5594-0.86039 3.3967-1.2906 5.5118-1.2906 6.3811 0 9.6254 3.3788 9.733 10.136v19.493h-4.974v-19.197c0-2.0793-0.47502-3.6297-1.425-4.6514-0.94999-1.0396-2.5453-1.5594-4.7858-1.5594-1.8462 0-3.3788 0.55567-4.5976 1.667-1.2188 1.0934-1.9269 2.5721-2.124 4.4363v19.305h-5.0009v-19.063c0-4.2302-2.0703-6.3453-6.2108-6.3453-3.2623 0-5.4939 1.3892-6.6948 4.1674v21.24h-4.974v-29.091zm48.288 0 0.13447 3.2264c2.133-2.5094 5.0099-3.7642 8.6306-3.7642 4.0689 0 6.8382 1.5594 8.308 4.6783 0.96791-1.3981 2.2226-2.5273 3.7641-3.3877 1.5594-0.86039 3.3967-1.2906 5.5118-1.2906 6.3811 0 9.6254 3.3788 9.733 10.136v19.493h-4.9741v-19.197c0-2.0793-0.47502-3.6297-1.425-4.6514-0.94999-1.0396-2.5453-1.5594-4.7858-1.5594-1.8462 0-3.3788 0.55567-4.5976 1.667-1.2188 1.0934-1.9269 2.5721-2.124 4.4363v19.305h-5.0009v-19.063c0-4.2302-2.0703-6.3453-6.2108-6.3453-3.2623 0-5.4939 1.3892-6.6948 4.1674v21.24h-4.9741v-29.091zm42.293 14.277c0-2.85 0.55567-5.4132 1.667-7.6896 1.1293-2.2764 2.6886-4.033 4.6783-5.2698 2.0075-1.2368 4.2929-1.8552 6.8561-1.8552 3.9613 0 7.1608 1.3712 9.5986 4.1137 2.4557 2.7424 3.6835 6.3901 3.6835 10.943v0.34958c0 2.832-0.54664 5.3774-1.6401 7.6358-1.0755 2.2406-2.6259 3.9882-4.6514 5.2429-2.0075 1.2547-4.3198 1.882-6.9368 1.882-3.9434 0-7.1429-1.3712-9.5986-4.1136-2.4377-2.7424-3.6566-6.3721-3.6566-10.889zm5.0009 0.59152c0 3.2264 0.74386 5.8165 2.2316 7.7703 1.5056 1.9538 3.5132 2.9306 6.0226 2.9306 2.5273 0 4.5349-0.98583 6.0226-2.9575 1.4877-1.9896 2.2316-4.7679 2.2316-8.3349 0-3.1906-0.76184-5.7717-2.2854-7.7434-1.5056-1.9896-3.5132-2.9844-6.0226-2.9844-2.4557 0-4.4363 0.97687-5.942 2.9306-1.5056 1.9538-2.2585 4.75-2.2585 8.3887z" fill="#fafafa" stroke-width="0"/>
    <g transform="translate(-.85816 6.2932)" text-anchor="start">
     <g fill="#000" font-size="14" font-weight="400" stroke-width="1"></g>
     <g font-family="Roboto" font-weight="normal">
      <g fill="#000" font-size="10.583px" stroke-width=".26458">
       <text transform="scale(.00907)" x="19554.057" y="15300.054"/>
      </g>
     </g>
    </g>
    <g transform="translate(-.85816 6.2932)">
     <g fill="#000" font-size="14" font-weight="400" stroke-width="1"></g>
     <g fill="#fafafa" font-size="19.733" font-weight="normal" stroke-width=".49332"></g>
    </g>
   </g>
  </g>
 </g>
</svg>
