<?xml version="1.0" encoding="UTF-8" standalone="no"?>
<svg
   version="1.1"
   width="4096"
   height="2304"
   id="svg180"
   sodipodi:docname="logo-header.svg"
   inkscape:version="1.1 (c68e22c387, 2021-05-23)"
   inkscape:export-filename="C:\Users\atims\Pictures\logo-header.png"
   inkscape:export-xdpi="96"
   inkscape:export-ydpi="96"
   xmlns:inkscape="http://www.inkscape.org/namespaces/inkscape"
   xmlns:sodipodi="http://sodipodi.sourceforge.net/DTD/sodipodi-0.dtd"
   xmlns="http://www.w3.org/2000/svg"
   xmlns:svg="http://www.w3.org/2000/svg"
   xmlns:rdf="http://www.w3.org/1999/02/22-rdf-syntax-ns#"
   xmlns:cc="http://creativecommons.org/ns#"
   xmlns:dc="http://purl.org/dc/elements/1.1/">
  <metadata
     id="metadata184">
    <rdf:RDF>
      <cc:Work
         rdf:about="">
        <dc:format>image/svg+xml</dc:format>
        <dc:type
           rdf:resource="http://purl.org/dc/dcmitype/StillImage" />
      </cc:Work>
    </rdf:RDF>
  </metadata>
  <sodipodi:namedview
     pagecolor="#ffffff"
     bordercolor="#666666"
     borderopacity="1"
     objecttolerance="10"
     gridtolerance="10"
     guidetolerance="10"
     inkscape:pageopacity="0"
     inkscape:pageshadow="2"
     inkscape:window-width="2560"
     inkscape:window-height="1520"
     id="namedview182"
     showgrid="false"
     inkscape:zoom="0.15364584"
     inkscape:cx="927.45761"
     inkscape:cy="2356.0678"
     inkscape:window-x="-11"
     inkscape:window-y="-11"
     inkscape:window-maximized="1"
     inkscape:current-layer="g1339"
     inkscape:document-rotation="0"
     fit-margin-top="0"
     fit-margin-left="0"
     fit-margin-right="0"
     fit-margin-bottom="0"
     inkscape:pagecheckerboard="0" />
  <defs
     id="defs25">
    <linearGradient
       id="color-1-0"
       gradientUnits="userSpaceOnUse"
       y2="43.221718"
       x2="5.3040738"
       y1="19.577789"
       x1="5.2617898"
       gradientTransform="matrix(4.5477859,0,0,4.5477859,34.356721,-7.3189838)">
      <stop
         id="stop1173"
         stop-opacity="0.28"
         stop-color="#000000"
         offset="0" />
      <stop
         id="stop1175"
         stop-opacity="0"
         stop-color="#000000"
         offset="1" />
    </linearGradient>
  </defs>
  <g
     stroke-width="none"
     stroke-miterlimit="10"
     font-weight="none"
     font-size="none"
     text-anchor="none"
     style="font-family:none;mix-blend-mode:normal;fill:none;fill-rule:nonzero;stroke:none;stroke-linecap:butt;stroke-linejoin:miter;stroke-miterlimit:10;stroke-dasharray:none;stroke-dashoffset:0"
     id="g178"
     transform="matrix(10.909091,0,0,10.909091,-23.32666,-210.07118)">
    <g
       id="svg1137 1 1"
       font-weight="400"
       font-size="14"
       style="font-weight:400;font-size:14px;font-family:Roboto, sans-serif;text-anchor:start;fill:#000000;stroke-width:1"
       transform="translate(0.36666666)">
      <g
         id="layer1 1 1">
        <g
           id="g1692 1 1" />
        <g
           id="layer2 1 1" />
      </g>
    </g>
    <g
       id="svg1137 2 1"
       font-weight="400"
       font-size="14"
       style="font-weight:400;font-size:14px;font-family:Roboto, sans-serif;text-anchor:start;fill:#000000;stroke-width:1"
       transform="translate(0.36666666)">
      <g
         id="g63">
        <g
           id="g59" />
        <g
           id="g61" />
      </g>
    </g>
    <g
       id="svg1137 3 1"
       font-weight="400"
       font-size="14"
       style="font-weight:400;font-size:14px;font-family:Roboto, sans-serif;text-anchor:start;fill:#000000;stroke-width:1"
       transform="translate(0.36666666)">
      <g
         id="g80">
        <g
           id="g76" />
        <g
           id="g78" />
      </g>
    </g>
    <g
       id="svg1137 4 1"
       font-weight="400"
       font-size="14"
       style="font-weight:400;font-size:14px;font-family:Roboto, sans-serif;text-anchor:start;fill:#000000;stroke-width:1"
       transform="translate(0.36666666)">
      <g
         id="g97">
        <g
           id="g93" />
        <g
           id="g95" />
      </g>
    </g>
    <g
       id="svg1137 5 1"
       font-weight="400"
       font-size="14"
       style="font-weight:400;font-size:14px;font-family:Roboto, sans-serif;text-anchor:start;fill:#000000;stroke-width:1"
       transform="translate(0.36666666)">
      <g
         id="g114">
        <g
           id="g110" />
        <g
           id="g112" />
      </g>
    </g>
    <g
       id="svg1137 6 1"
       font-weight="400"
       font-size="14"
       style="font-weight:400;font-size:14px;font-family:Roboto, sans-serif;text-anchor:start;fill:#000000;stroke-width:1"
       transform="translate(0.36666666)">
      <g
         id="g131">
        <g
           id="g127" />
        <g
           id="g129" />
      </g>
    </g>
    <g
       id="svg1137 7 1"
       font-weight="400"
       font-size="14"
       style="font-weight:400;font-size:14px;font-family:Roboto, sans-serif;text-anchor:start;fill:#000000;stroke-width:1"
       transform="translate(0.36666666)">
      <g
         id="g148">
        <g
           id="g144" />
        <g
           id="g146" />
      </g>
    </g>
    <g
       id="svg1137 8 1"
       font-weight="400"
       font-size="14"
       style="font-weight:400;font-size:14px;font-family:Roboto, sans-serif;text-anchor:start;fill:#000000;stroke-width:1"
       transform="translate(0.36666666)">
      <g
         id="g165">
        <g
           id="g161" />
        <g
           id="g163" />
      </g>
    </g>
    <g
       transform="matrix(0.17803798,0,0,0.19393741,6.8844532,29.376043)"
       id="g74"
       style="font-family:none;mix-blend-mode:normal;fill:none;fill-rule:nonzero;stroke:none;stroke-linecap:butt;stroke-linejoin:miter;stroke-miterlimit:10;stroke-dasharray:none;stroke-dashoffset:0"
       text-anchor="none"
       font-size="none"
       font-weight="none"
       stroke-miterlimit="10"
       stroke-width="none">
      <g
         id="g1339"
         style="font-family:none;mix-blend-mode:normal;fill:none;fill-rule:nonzero;stroke:none;stroke-linecap:butt;stroke-linejoin:miter;stroke-miterlimit:10;stroke-dasharray:none;stroke-dashoffset:0"
         text-anchor="none"
         font-size="none"
         font-weight="none"
         stroke-miterlimit="10"
         stroke-width="none"
         transform="matrix(7.3216459,0,0,6.7214007,-23.979182,-188.0888)">
        <rect
           style="fill:#607d8b;fill-opacity:1;stroke-width:0.918377"
           id="rect279"
           width="288.63235"
           height="162.02145"
           x="-0.36504132"
           y="20.228874" />
        <path
           style="fill:url(#color-1-0);stroke-width:4.54779"
           id="path1199"
           d="M 71.004949,120.85934 V 98.516526 L 58.44883,85.960361 v -4.248088 h 30.27444 l 10.05571,10.055702 h 0.430143 l 7.904727,7.904813 V 98.62599 L 94.612491,86.124577 c -0.01904,-0.01904 -0.03643,-0.03726 -0.05465,-0.0563 -0.483962,-0.537782 -0.725985,-1.209897 -0.725985,-2.016496 0,-0.806549 0.242023,-1.487714 0.725985,-2.043406 0.501847,-0.555666 1.236816,-0.833516 2.204674,-0.833516 0.916879,0 1.624739,0.249309 2.123457,0.74801 l 9.845398,9.845408 3.08777,-4.1e-5 1.70728,1.707281 c 1.90894,-1.496723 4.26151,-2.245063 7.05776,-2.245063 2.89539,0 5.13272,0.789657 6.71203,2.368948 l 1.89625,1.896238 c 0.92256,-1.20907 2.07715,-2.200625 3.46382,-2.974659 1.55943,-0.860393 3.39665,-1.290527 5.51178,-1.290527 3.12469,0 5.49722,0.810192 7.1176,2.430567 l 10.11677,10.116869 V 91.768323 l 4.70518,-9.1e-5 1.70729,1.707281 c 1.90894,-1.496723 4.26151,-2.245063 7.05776,-2.245063 2.89539,0 5.13272,0.789657 6.71203,2.368948 l 1.89625,1.896238 c 0.92251,-1.20907 2.0771,-2.200625 3.46382,-2.974609 1.55943,-0.860401 3.39664,-1.290528 5.51178,-1.290528 3.12474,0 5.49727,0.810192 7.11765,2.430559 l 9.09416,9.094262 c 0.26694,-1.56954 0.73327,-3.036108 1.39898,-4.399848 1.12926,-2.27644 2.6887,-4.033029 4.67827,-5.269795 l 3.16034,3.160345 c 1.08133,-0.619174 2.31319,-0.928744 3.69563,-0.928744 2.10371,0 3.85475,0.699158 5.25301,2.097446 l 8.01433,8.014416 c -0.14631,-4.15527 -1.36911,-7.51701 -3.66856,-10.084986 l 63.06695,86.906186 -174.92335,0.59037 z"
           inkscape:connector-curvature="0"
           sodipodi:nodetypes="cccccccccscscsccccscccssccccscccssccccssccccc" />
        <path
           id="path1202"
           d="M 88.710212,85.905703 H 76.127258 V 120.80459 H 70.9919 V 85.905703 H 58.435822 v -4.248088 h 30.27439 z m 10.48582,34.898887 H 94.221984 V 91.713226 h 4.974048 z M 93.818685,83.996722 c 0,-0.806632 0.242023,-1.487715 0.725985,-2.043365 0.50193,-0.555666 1.236766,-0.833475 2.204715,-0.833475 0.967909,0 1.702827,0.277792 2.204724,0.833475 0.50193,0.555667 0.752812,1.236775 0.752812,2.043365 0,0.806631 -0.250965,1.478763 -0.752812,2.016487 -0.50193,0.5377 -1.236774,0.806632 -2.204724,0.806632 -0.967899,0 -1.702827,-0.26885 -2.204715,-0.806632 -0.483962,-0.537699 -0.725985,-1.209889 -0.725985,-2.016487 z m 17.987175,7.716504 0.13447,3.226377 c 2.133,-2.509417 5.00989,-3.764151 8.63061,-3.764151 4.06886,0 6.83818,1.559435 8.30799,4.678256 0.9679,-1.398125 2.22263,-2.527335 3.76415,-3.387736 1.55943,-0.860394 3.39669,-1.290569 5.51178,-1.290569 6.38109,0 9.62544,3.378777 9.73298,10.136287 v 19.49285 h -4.97405 v -19.19706 c 0,-2.079252 -0.47502,-3.629678 -1.42499,-4.65139 -0.94999,-1.03962 -2.54526,-1.559435 -4.78582,-1.559435 -1.84622,0 -3.37878,0.555667 -4.59763,1.666992 -1.21885,1.093382 -1.92689,2.572138 -2.12404,4.436323 v 19.30462 h -5.00093 v -19.06263 c 0,-4.23017 -2.07028,-6.345255 -6.21082,-6.345255 -3.26226,0 -5.49386,1.389167 -6.6948,4.16745 v 21.240485 h -4.97405 V 91.713267 Z m 48.28848,0 0.13447,3.226377 c 2.133,-2.509417 5.00989,-3.764151 8.63061,-3.764151 4.06886,0 6.83818,1.559435 8.30798,4.678256 0.96791,-1.398125 2.22264,-2.527335 3.76412,-3.387736 1.55943,-0.860394 3.39669,-1.290569 5.51178,-1.290569 6.38108,0 9.62542,3.378777 9.73298,10.136287 v 19.49285 h -4.97408 v -19.19706 c 0,-2.079252 -0.47502,-3.629678 -1.425,-4.65139 -0.94999,-1.03962 -2.54526,-1.559435 -4.78582,-1.559435 -1.84622,0 -3.37878,0.555667 -4.59763,1.666992 -1.21885,1.093382 -1.9269,2.572138 -2.12404,4.436323 v 19.30462 h -5.00093 v -19.06263 c 0,-4.23017 -2.07029,-6.345255 -6.21082,-6.345255 -3.26226,0 -5.49386,1.389167 -6.69479,4.16745 v 21.240485 h -4.97406 V 91.713267 Z m 42.29273,14.276814 c 0,-2.85 0.55567,-5.41318 1.66699,-7.689578 1.12926,-2.276394 2.68865,-4.033016 4.67831,-5.26979 2.00753,-1.236766 4.29288,-1.855178 6.85611,-1.855178 3.96129,0 7.1608,1.371207 9.59855,4.113655 2.45567,2.742447 3.68348,6.390051 3.68348,10.942881 v 0.34958 c 0,2.83204 -0.54664,5.37735 -1.64007,7.63582 -1.07546,2.24055 -2.62594,3.98818 -4.65138,5.24292 -2.00753,1.25473 -4.31981,1.88205 -6.93679,1.88205 -3.94338,0 -7.14288,-1.37121 -9.59856,-4.11365 -2.43769,-2.74245 -3.65659,-6.37214 -3.65659,-10.88909 z m 5.00093,0.59152 c 0,3.22638 0.74386,5.81648 2.2316,7.77026 1.50564,1.95376 3.51321,2.93063 6.02263,2.93063 2.52734,0 4.53487,-0.98583 6.02263,-2.95751 1.48772,-1.98961 2.2316,-4.7679 2.2316,-8.33487 0,-3.19055 -0.76184,-5.77168 -2.28535,-7.743377 -1.50564,-1.989611 -3.51321,-2.984438 -6.02263,-2.984438 -2.45567,0 -4.43633,0.976867 -5.94196,2.930635 -1.50564,1.95377 -2.25848,4.74998 -2.25848,8.38867 z"
           inkscape:connector-curvature="0"
           style="fill:#fafafa;stroke-width:0" />
        <g
           id="svg180 1 1"
           style="text-anchor:start"
           transform="translate(-0.85816486,6.2932059)">
          <g
             id="g178 1 1">
            <g
               font-size="14"
               font-weight="400"
               id="svg1137 1 1 1 1"
               style="font-weight:400;font-size:14px;font-family:Roboto, sans-serif;fill:#000000;stroke-width:1">
              <g
                 id="layer1 1 1 1 1">
                <g
                   id="g1692 1 1 1 1" />
                <g
                   id="layer2 1 1 1 1" />
              </g>
            </g>
            <g
               font-size="14"
               font-weight="400"
               id="svg1137 2 1 1 1"
               style="font-weight:400;font-size:14px;font-family:Roboto, sans-serif;fill:#000000;stroke-width:1">
              <g
                 id="g63 1 1">
                <g
                   id="g59 1 1" />
                <g
                   id="g61 1 1" />
              </g>
            </g>
            <g
               font-size="14"
               font-weight="400"
               id="svg1137 3 1 1 1"
               style="font-weight:400;font-size:14px;font-family:Roboto, sans-serif;fill:#000000;stroke-width:1">
              <g
                 id="g80 1 1">
                <g
                   id="g76 1 1" />
                <g
                   id="g78 1 1" />
              </g>
            </g>
            <g
               font-size="14"
               font-weight="400"
               id="svg1137 4 1 1 1"
               style="font-weight:400;font-size:14px;font-family:Roboto, sans-serif;fill:#000000;stroke-width:1">
              <g
                 id="g97 1 1">
                <g
                   id="g93 1 1" />
                <g
                   id="g95 1 1" />
              </g>
            </g>
            <g
               font-size="14"
               font-weight="400"
               id="svg1137 5 1 1 1"
               style="font-weight:400;font-size:14px;font-family:Roboto, sans-serif;fill:#000000;stroke-width:1">
              <g
                 id="g114 1 1">
                <g
                   id="g110 1 1" />
                <g
                   id="g112 1 1" />
              </g>
            </g>
            <g
               font-size="14"
               font-weight="400"
               id="svg1137 6 1 1 1"
               style="font-weight:400;font-size:14px;font-family:Roboto, sans-serif;fill:#000000;stroke-width:1">
              <g
                 id="g131 1 1">
                <g
                   id="g127 1 1" />
                <g
                   id="g129 1 1" />
              </g>
            </g>
            <g
               font-size="14"
               font-weight="400"
               id="svg1137 7 1 1 1"
               style="font-weight:400;font-size:14px;font-family:Roboto, sans-serif;fill:#000000;stroke-width:1">
              <g
                 id="g148 1 1">
                <g
                   id="g144 1 1" />
                <g
                   id="g146 1 1" />
              </g>
            </g>
            <g
               font-size="14"
               font-weight="400"
               id="svg1137 8 1 1 1"
               style="font-weight:400;font-size:14px;font-family:Roboto, sans-serif;fill:#000000;stroke-width:1">
              <g
                 id="g165 1 1">
                <g
                   id="g161 1 1" />
                <g
                   id="g163 1 1" />
              </g>
            </g>
            <g
               font-weight="normal"
               id="g74 1 1"
               style="font-weight:normal;font-family:Roboto">
              <g
                 font-size="19.7326"
                 id="text1101 1 1"
                 style="font-size:19.7326px;fill:#fafafa;stroke-width:0.49332" />
              <g
                 font-size="10.5833"
                 id="g74-9 1 1"
                 style="font-size:10.5833px;fill:#000000;stroke-width:0.26458">
                <g
                   id="g948 1 1">
                  <g
                     id="svg8 3 1 1 1">
                    <g
                       id="g61-6 1 1">
                      <text
                         id="text57 1 1"
                         transform="scale(0.00907)"
                         y="15300.054"
                         x="19554.057" />
                      <g
                         id="g59-6 1 1" />
                    </g>
                  </g>
                </g>
              </g>
            </g>
          </g>
        </g>
        <g
           id="svg180 2 1"
           style="text-anchor:start"
           transform="translate(-0.85816486,6.2932059)">
          <g
             id="g1326">
            <g
               font-size="14"
               font-weight="400"
               id="g1264"
               style="font-weight:400;font-size:14px;font-family:Roboto, sans-serif;fill:#000000;stroke-width:1">
              <g
                 id="g1262">
                <g
                   id="g1258" />
                <g
                   id="g1260" />
              </g>
            </g>
            <g
               font-size="14"
               font-weight="400"
               id="g1272"
               style="font-weight:400;font-size:14px;font-family:Roboto, sans-serif;fill:#000000;stroke-width:1">
              <g
                 id="g1270">
                <g
                   id="g1266" />
                <g
                   id="g1268" />
              </g>
            </g>
            <g
               font-size="14"
               font-weight="400"
               id="g1280"
               style="font-weight:400;font-size:14px;font-family:Roboto, sans-serif;fill:#000000;stroke-width:1">
              <g
                 id="g1278">
                <g
                   id="g1274" />
                <g
                   id="g1276" />
              </g>
            </g>
            <g
               font-size="14"
               font-weight="400"
               id="g1288"
               style="font-weight:400;font-size:14px;font-family:Roboto, sans-serif;fill:#000000;stroke-width:1">
              <g
                 id="g1286">
                <g
                   id="g1282" />
                <g
                   id="g1284" />
              </g>
            </g>
            <g
               font-size="14"
               font-weight="400"
               id="g1296"
               style="font-weight:400;font-size:14px;font-family:Roboto, sans-serif;fill:#000000;stroke-width:1">
              <g
                 id="g1294">
                <g
                   id="g1290" />
                <g
                   id="g1292" />
              </g>
            </g>
            <g
               font-size="14"
               font-weight="400"
               id="g1304"
               style="font-weight:400;font-size:14px;font-family:Roboto, sans-serif;fill:#000000;stroke-width:1">
              <g
                 id="g1302">
                <g
                   id="g1298" />
                <g
                   id="g1300" />
              </g>
            </g>
            <g
               font-size="14"
               font-weight="400"
               id="g1312"
               style="font-weight:400;font-size:14px;font-family:Roboto, sans-serif;fill:#000000;stroke-width:1">
              <g
                 id="g1310">
                <g
                   id="g1306" />
                <g
                   id="g1308" />
              </g>
            </g>
            <g
               font-size="14"
               font-weight="400"
               id="g1320"
               style="font-weight:400;font-size:14px;font-family:Roboto, sans-serif;fill:#000000;stroke-width:1">
              <g
                 id="g1318">
                <g
                   id="g1314" />
                <g
                   id="g1316" />
              </g>
            </g>
            <g
               font-size="19.7326"
               font-weight="normal"
               id="g1324"
               style="font-weight:normal;font-size:19.7326px;font-family:Roboto;fill:#fafafa;stroke-width:0.49332">
              <g
                 id="g1322" />
            </g>
          </g>
        </g>
      </g>
    </g>
  </g>
</svg>
