<?xml version="1.0" standalone="no"?>
<!DOCTYPE svg PUBLIC "-//W3C//DTD SVG 20010904//EN"
 "http://www.w3.org/TR/2001/REC-SVG-20010904/DTD/svg10.dtd">
<svg version="1.0" xmlns="http://www.w3.org/2000/svg"
 width="1000.000000pt" height="1000.000000pt" viewBox="0 0 1000.000000 1000.000000"
 preserveAspectRatio="xMidYMid meet">
<metadata>
Created by potrace 1.14, written by Peter Selinger 2001-2017
</metadata>
<g transform="translate(0.000000,1000.000000) scale(0.100000,-0.100000)"
fill="#000000" stroke="none">
<path d="M9690 8599 c-19 -4 -53 -10 -75 -13 -22 -4 -92 -15 -155 -25 -63 -11
-137 -22 -163 -26 -27 -4 -59 -8 -70 -11 -12 -2 -38 -7 -57 -10 -19 -3 -75
-12 -125 -20 -49 -8 -101 -17 -115 -19 -14 -2 -83 -13 -155 -24 -71 -11 -147
-23 -169 -27 -21 -3 -46 -7 -55 -9 -9 -1 -52 -8 -96 -15 -44 -7 -87 -14 -97
-15 -9 -2 -38 -7 -65 -11 -26 -3 -57 -8 -68 -10 -10 -2 -35 -6 -55 -9 -20 -3
-45 -7 -55 -9 -11 -2 -40 -7 -65 -11 -64 -9 -92 -14 -115 -19 -11 -2 -45 -7
-75 -11 -30 -4 -64 -9 -75 -11 -11 -2 -78 -13 -150 -24 -71 -12 -137 -22 -145
-25 -8 -2 -37 -6 -65 -10 -48 -6 -92 -13 -125 -20 -8 -2 -23 -4 -33 -4 -12 -1
-16 -5 -11 -13 6 -10 4 -10 -7 -2 -10 8 -49 5 -148 -12 -73 -12 -150 -25 -170
-28 -33 -4 -128 -19 -206 -32 -16 -2 -55 -9 -85 -14 -30 -6 -68 -12 -85 -14
-28 -4 -90 -13 -145 -22 -14 -2 -83 -13 -155 -24 -71 -12 -141 -23 -155 -25
-14 -3 -41 -8 -60 -11 -19 -2 -118 -18 -220 -35 -297 -48 -422 -68 -465 -74
-22 -3 -65 -10 -95 -15 -67 -11 -101 -17 -160 -25 -25 -4 -126 -20 -225 -36
-99 -16 -191 -31 -205 -34 -74 -12 -489 -78 -515 -81 -16 -3 -55 -9 -85 -14
-30 -5 -73 -12 -95 -15 -22 -4 -78 -12 -125 -20 -47 -8 -101 -16 -120 -19 -19
-3 -46 -8 -59 -10 -12 -3 -42 -8 -65 -10 -22 -3 -50 -7 -61 -10 -11 -2 -42 -7
-68 -10 -27 -4 -57 -9 -67 -11 -9 -2 -35 -6 -56 -9 -22 -3 -50 -8 -64 -11 -14
-2 -43 -7 -65 -10 -22 -3 -65 -10 -95 -15 -50 -8 -110 -18 -165 -25 -11 -2
-75 -13 -143 -24 -67 -11 -142 -23 -165 -26 -23 -3 -69 -10 -102 -16 -33 -5
-71 -12 -85 -15 -14 -2 -45 -7 -70 -10 -25 -3 -54 -8 -65 -10 -19 -4 -56 -10
-120 -20 -16 -2 -41 -6 -55 -9 -14 -2 -41 -6 -60 -9 -19 -3 -120 -19 -225 -36
-104 -17 -201 -33 -215 -35 -151 -23 -258 -40 -375 -60 -77 -13 -161 -26 -186
-29 -25 -4 -57 -9 -70 -11 -23 -4 -236 -38 -309 -49 -51 -8 -401 -65 -430 -70
-14 -2 -34 -5 -44 -5 -40 -2 2 -19 179 -76 99 -31 225 -72 280 -90 55 -18 235
-76 400 -129 313 -102 417 -135 955 -309 179 -58 355 -115 392 -127 37 -12 73
-18 79 -14 7 4 9 3 6 -3 -3 -5 32 -22 81 -37 l87 -28 220 72 c121 39 243 80
270 90 28 10 100 34 160 53 163 51 1091 356 1153 378 29 10 57 19 62 19 6 0 8
-37 5 -87 -2 -49 -7 -171 -11 -273 -6 -195 -8 -243 -19 -515 -3 -93 -8 -217
-10 -275 -2 -58 -7 -170 -10 -250 -3 -80 -8 -201 -10 -270 -3 -69 -7 -186 -10
-260 -3 -74 -8 -196 -10 -270 -7 -178 -14 -366 -20 -520 -9 -223 -15 -372 -20
-535 -3 -88 -8 -209 -10 -270 -3 -60 -7 -171 -10 -245 -3 -74 -7 -187 -10
-250 -6 -162 -14 -361 -20 -525 -3 -77 -8 -196 -10 -265 -9 -237 -14 -385 -19
-540 -5 -146 -4 -152 10 -110 12 37 107 399 303 1150 17 63 40 151 51 195 12
44 32 121 45 170 13 50 42 162 65 250 38 147 169 648 220 840 12 44 36 139 55
210 18 72 45 175 60 230 15 55 28 107 30 115 2 8 18 69 35 135 18 66 36 138
42 160 5 22 36 139 68 260 32 121 88 335 124 476 36 141 89 341 117 445 27
104 52 196 54 204 2 8 8 33 13 55 5 22 35 137 66 255 61 228 106 401 162 620
19 74 36 135 37 136 3 2 381 128 387 129 11 2 729 238 775 255 28 10 147 50
265 88 312 101 833 272 850 279 8 3 21 8 28 10 6 1 18 5 25 6 6 2 19 7 27 10
12 5 417 138 1329 437 136 45 172 61 131 58 -14 -1 -41 -5 -60 -9z m-4275
-760 c2 -3 -43 -6 -101 -8 -58 -1 -104 1 -101 6 5 8 193 10 202 2z m-232 -36
c-7 -2 -19 -2 -25 0 -7 3 -2 5 12 5 14 0 19 -2 13 -5z m185 0 c-27 -2 -69 -2
-95 0 -27 2 -5 3 47 3 52 0 74 -1 48 -3z m1162 -83 c0 -5 -17 -9 -37 -9 l-38
2 35 7 c19 4 36 8 38 9 1 0 2 -3 2 -9z m70 6 c0 -2 -7 -6 -15 -10 -8 -3 -15
-1 -15 4 0 6 7 10 15 10 8 0 15 -2 15 -4z m37 -2 c-3 -3 -12 -4 -19 -1 -8 3
-5 6 6 6 11 1 17 -2 13 -5z m40 0 c-3 -3 -12 -4 -19 -1 -8 3 -5 6 6 6 11 1 17
-2 13 -5z m61 -1 c-10 -2 -26 -2 -35 0 -10 3 -2 5 17 5 19 0 27 -2 18 -5z
m-761 -19 c-3 -3 -12 -4 -19 -1 -8 3 -5 6 6 6 11 1 17 -2 13 -5z m91 -1 c-10
-2 -26 -2 -35 0 -10 3 -2 5 17 5 19 0 27 -2 18 -5z m-2885 -210 c-7 -2 -21 -2
-30 0 -10 3 -4 5 12 5 17 0 24 -2 18 -5z m74 1 c-3 -3 -12 -4 -19 -1 -8 3 -5
6 6 6 11 1 17 -2 13 -5z m101 -1 c-15 -2 -42 -2 -60 0 -18 2 -6 4 27 4 33 0
48 -2 33 -4z m65 0 c-7 -2 -19 -2 -25 0 -7 3 -2 5 12 5 14 0 19 -2 13 -5z
m-620 -50 c-7 -2 -21 -2 -30 0 -10 3 -4 5 12 5 17 0 24 -2 18 -5z m44 1 c-3
-3 -12 -4 -19 -1 -8 3 -5 6 6 6 11 1 17 -2 13 -5z m-477 -146 c0 -4 -7 -8 -15
-8 -8 0 -15 4 -15 8 0 5 7 9 15 9 8 0 15 -4 15 -9z m2687 6 c-3 -3 -12 -4 -19
-1 -8 3 -5 6 6 6 11 1 17 -2 13 -5z m46 -1 c-7 -2 -19 -2 -25 0 -7 3 -2 5 12
5 14 0 19 -2 13 -5z m-2776 -9 c-3 -3 -12 -4 -19 -1 -8 3 -5 6 6 6 11 1 17 -2
13 -5z m101 -1 c-10 -2 -26 -2 -35 0 -10 3 -2 5 17 5 19 0 27 -2 18 -5z m2109
-9 c-3 -3 -12 -4 -19 -1 -8 3 -5 6 6 6 11 1 17 -2 13 -5z m-1443 -15 c-4 -7
-75 0 -83 7 -3 3 16 3 41 2 25 -2 44 -6 42 -9z m36 1 c0 -5 -5 -10 -11 -10 -5
0 -7 5 -4 10 3 6 8 10 11 10 2 0 4 -4 4 -10z m-403 -76 c-3 -3 -12 -4 -19 -1
-8 3 -5 6 6 6 11 1 17 -2 13 -5z m57 -5 c-4 -7 -44 0 -44 7 0 2 11 3 24 2 14
-1 23 -5 20 -9z m480 3 c3 -5 -1 -9 -9 -9 -8 0 -12 4 -9 9 3 4 7 8 9 8 2 0 6
-4 9 -8z m461 -1 c3 -5 2 -12 -3 -15 -5 -3 -9 1 -9 9 0 17 3 19 12 6z m2053
-6 c-8 -9 -118 -13 -118 -5 0 4 28 8 62 9 34 1 59 -1 56 -4z m-2801 -59 c-1
-7 24 -11 70 -11 40 -1 75 -3 78 -6 3 -3 -37 -6 -87 -6 -51 0 -87 2 -80 5 9 3
10 8 3 16 -8 9 -7 13 4 13 7 0 13 -5 12 -11z m226 7 c-29 -2 -77 -2 -105 0
-29 2 -6 3 52 3 58 0 81 -1 53 -3z m-268 -21 c-3 -3 -11 0 -18 7 -9 10 -8 11
6 5 10 -3 15 -9 12 -12z m-617 -39 c-10 -2 -28 -2 -40 0 -13 2 -5 4 17 4 22 1
32 -1 23 -4z m3102 -33 c0 -5 -5 -10 -11 -10 -5 0 -7 5 -4 10 3 6 8 10 11 10
2 0 4 -4 4 -10z m-33 -6 c-8 -8 -218 -6 -225 1 -3 3 48 5 113 5 65 0 115 -3
112 -6z m-73 -33 c2 -3 -11 -6 -30 -6 -19 0 -34 3 -34 7 0 8 59 7 64 -1z m63
2 c-9 -8 -47 -11 -47 -4 0 5 11 9 25 9 14 0 24 -2 22 -5z m-1723 -51 c3 -5 -1
-9 -9 -9 -8 0 -12 4 -9 9 3 4 7 8 9 8 2 0 6 -4 9 -8z m-71 -9 c-7 -2 -19 -2
-25 0 -7 3 -2 5 12 5 14 0 19 -2 13 -5z m2 -23 c3 -5 1 -10 -4 -10 -6 0 -11 5
-11 10 0 6 2 10 4 10 3 0 8 -4 11 -10z m-1338 -6 c-3 -3 -12 -4 -19 -1 -8 3
-5 6 6 6 11 1 17 -2 13 -5z m101 -1 c-10 -2 -28 -2 -40 0 -13 2 -5 4 17 4 22
1 32 -1 23 -4z m1315 0 c-7 -2 -19 -2 -25 0 -7 3 -2 5 12 5 14 0 19 -2 13 -5z
m-843 -169 c0 -2 -7 -4 -15 -4 -8 0 -15 4 -15 10 0 5 7 7 15 4 8 -4 15 -8 15
-10z m-562 -41 c-21 -2 -57 -2 -80 0 -24 2 -7 4 37 4 44 0 63 -2 43 -4z m69 1
c-3 -3 -12 -4 -19 -1 -8 3 -5 6 6 6 11 1 17 -2 13 -5z m827 -12 c3 -5 -1 -9
-9 -9 -8 0 -12 4 -9 9 3 4 7 8 9 8 2 0 6 -4 9 -8z m36 4 c0 -3 -4 -8 -10 -11
-5 -3 -10 -1 -10 4 0 6 5 11 10 11 6 0 10 -2 10 -4z m105 -14 c-3 -3 -11 0
-18 7 -9 10 -8 11 6 5 10 -3 15 -9 12 -12z m45 12 c0 -8 -19 -13 -24 -6 -3 5
1 9 9 9 8 0 15 -2 15 -3z m57 0 c-3 -3 -12 -4 -19 -1 -8 3 -5 6 6 6 11 1 17
-2 13 -5z m-340 -10 c-3 -3 -12 -4 -19 -1 -8 3 -5 6 6 6 11 1 17 -2 13 -5z
m40 0 c-3 -3 -12 -4 -19 -1 -8 3 -5 6 6 6 11 1 17 -2 13 -5z m-317 -38 c0 -2
-7 -6 -15 -10 -8 -3 -15 -1 -15 4 0 6 7 10 15 10 8 0 15 -2 15 -4z m40 -2 c0
-8 -19 -13 -24 -6 -3 5 1 9 9 9 8 0 15 -2 15 -3z m2227 -140 c-3 -3 -12 -4
-19 -1 -8 3 -5 6 6 6 11 1 17 -2 13 -5z m40 0 c-3 -3 -12 -4 -19 -1 -8 3 -5 6
6 6 11 1 17 -2 13 -5z m-2790 -10 c-3 -3 -12 -4 -19 -1 -8 3 -5 6 6 6 11 1 17
-2 13 -5z m121 -1 c-21 -2 -55 -2 -75 0 -21 2 -4 4 37 4 41 0 58 -2 38 -4z
m587 -23 c3 -5 1 -10 -4 -10 -6 0 -11 5 -11 10 0 6 2 10 4 10 3 0 8 -4 11 -10z
m115 -4 c8 -2 -11 -4 -42 -5 -32 0 -58 2 -58 7 0 7 64 6 100 -2z m-303 -2 c-3
-3 -12 -4 -19 -1 -8 3 -5 6 6 6 11 1 17 -2 13 -5z m46 -1 c-7 -2 -19 -2 -25 0
-7 3 -2 5 12 5 14 0 19 -2 13 -5z m304 1 c-3 -3 -12 -4 -19 -1 -8 3 -5 6 6 6
11 1 17 -2 13 -5z m-410 -80 c-3 -3 -12 -4 -19 -1 -8 3 -5 6 6 6 11 1 17 -2
13 -5z m52 -4 c-6 -5 -18 -6 -26 -3 -19 8 -16 11 13 11 17 0 22 -3 13 -8z m46
0 c3 -6 -1 -7 -9 -4 -18 7 -21 14 -7 14 6 0 13 -4 16 -10z m2808 -7 c-7 -2
-19 -2 -25 0 -7 3 -2 5 12 5 14 0 19 -2 13 -5z m-449 -141 c3 -5 -1 -9 -9 -9
-8 0 -15 4 -15 9 0 4 4 8 9 8 6 0 12 -4 15 -8z m136 -1 c0 -3 -27 -6 -60 -7
-33 -1 -60 2 -60 5 0 3 27 7 60 7 33 1 60 -1 60 -5z m28 -36 c3 -3 -21 -5 -54
-5 -37 0 -54 4 -45 9 13 8 90 5 99 -4z m-161 -1 c-3 -3 -12 -4 -19 -1 -8 3 -5
6 6 6 11 1 17 -2 13 -5z m40 0 c-3 -3 -12 -4 -19 -1 -8 3 -5 6 6 6 11 1 17 -2
13 -5z m-327 -89 c0 -7 -30 -13 -34 -7 -3 4 4 9 15 9 10 1 19 0 19 -2z m235
-483 c-3 -3 -11 0 -18 7 -9 10 -8 11 6 5 10 -3 15 -9 12 -12z m211 -199 c-8
-8 -197 -5 -205 2 -2 3 44 5 104 5 60 0 105 -3 101 -7z m-199 -29 c-3 -3 -12
-4 -19 -1 -8 3 -5 6 6 6 11 1 17 -2 13 -5z m176 -1 c-29 -2 -78 -2 -110 0 -32
2 -8 3 52 3 61 0 87 -1 58 -3z m-479 -91 c3 -5 -1 -9 -9 -9 -8 0 -12 4 -9 9 3
4 7 8 9 8 2 0 6 -4 9 -8z m169 -229 c-7 -2 -19 -2 -25 0 -7 3 -2 5 12 5 14 0
19 -2 13 -5z m80 -180 c-7 -2 -19 -2 -25 0 -7 3 -2 5 12 5 14 0 19 -2 13 -5z
m80 -270 c-7 -2 -19 -2 -25 0 -7 3 -2 5 12 5 14 0 19 -2 13 -5z m-323 -119 c0
-8 -19 -13 -24 -6 -3 5 1 9 9 9 8 0 15 -2 15 -3z m185 -404 c-3 -5 -14 -10
-23 -9 -14 0 -13 2 3 9 27 11 27 11 20 0z m-48 -6 c-3 -3 -12 -4 -19 -1 -8 3
-5 6 6 6 11 1 17 -2 13 -5z"/>
</g>
</svg>
